<svg width="500" height="120" viewBox="0 0 500 120" fill="none" xmlns="http://www.w3.org/2000/svg">
  <defs>
    <linearGradient id="text-gradient" x1="0%" y1="0%" x2="100%" y2="0%">
      <stop offset="0%" stop-color="#2563EB" />
      <stop offset="100%" stop-color="#7C3AED" />
    </linearGradient>
  </defs>

  <!-- Icon part (scaled down) -->
  <g transform="translate(10, 10) scale(0.5)">
    <defs>
      <linearGradient id="logo-gradient-2" x1="0%" y1="0%" x2="100%" y2="100%">
        <stop offset="0%" stop-color="#2563EB" />
        <stop offset="50%" stop-color="#06B6D4" />
        <stop offset="100%" stop-color="#7C3AED" />
      </linearGradient>
    </defs>
    <path d="M40 50C40 40 50 40 60 40H140C150 40 160 50 160 60V75C160 85 150 90 140 90H80C70 90 65 95 65 105C65 115 70 120 80 120H130C140 120 150 125 150 135V150C150 160 140 170 130 170H60C45 170 40 160 40 150V50Z" fill="url(#logo-gradient-2)" />
  </g>

  <!-- Text part -->
  <text x="120" y="85" font-family="Arial, sans-serif" font-weight="bold" font-size="70" fill="#111827">enkai</text>
  <text x="320" y="85" font-family="Arial, sans-serif" font-weight="normal" font-size="24" fill="#64748B" letter-spacing="2">BUSINESS</text>
  
  <!-- Slogan -->
  <text x="125" y="110" font-family="Arial, sans-serif" font-size="14" fill="#94A3B8">One Enkai. One Vision.</text>
</svg>
