<?xml version="1.0" encoding="UTF-8"?>
<svg id="Layer_1" data-name="Layer 1" xmlns="http://www.w3.org/2000/svg" xmlns:xlink="http://www.w3.org/1999/xlink" viewBox="0 0 1080 1080">
  <defs>
    <style>
      .cls-1 {
        fill: url(#linear-gradient);
      }

      .cls-1, .cls-2, .cls-3, .cls-4, .cls-5 {
        stroke-width: 0px;
      }

      .cls-2 {
        fill: url(#linear-gradient-5);
      }

      .cls-3 {
        fill: url(#linear-gradient-2);
      }

      .cls-4 {
        fill: url(#linear-gradient-3);
      }

      .cls-5 {
        fill: url(#linear-gradient-4);
      }
    </style>
    <linearGradient id="linear-gradient" x1="180.14" y1="1049.17" x2="960.53" y2="644.34" gradientUnits="userSpaceOnUse">
      <stop offset=".25" stop-color="#080027"/>
      <stop offset=".47" stop-color="#000b7f"/>
      <stop offset=".73" stop-color="#0103aa"/>
    </linearGradient>
    <linearGradient id="linear-gradient-2" x1="-24.85" y1="786.89" x2="489.55" y2="311.5" gradientUnits="userSpaceOnUse">
      <stop offset=".25" stop-color="#080027"/>
      <stop offset="1" stop-color="#000b7f"/>
    </linearGradient>
    <linearGradient id="linear-gradient-3" x1="18.75" y1="359.28" x2="1061.25" y2="359.28" gradientUnits="userSpaceOnUse">
      <stop offset=".06" stop-color="#0103aa"/>
      <stop offset=".44" stop-color="#0111b0"/>
      <stop offset=".93" stop-color="#006cd4"/>
    </linearGradient>
    <linearGradient id="linear-gradient-4" x1="20.83" y1="740.05" x2="1061.25" y2="740.05" gradientUnits="userSpaceOnUse">
      <stop offset=".35" stop-color="#0103aa"/>
      <stop offset=".93" stop-color="#006cd4"/>
    </linearGradient>
    <linearGradient id="linear-gradient-5" x1="483.81" y1="928.04" x2="1061.25" y2="928.04" gradientUnits="userSpaceOnUse">
      <stop offset=".35" stop-color="#0103aa"/>
      <stop offset=".93" stop-color="#000df9"/>
    </linearGradient>
  </defs>
  <path class="cls-1" d="M861.75,627.84c-23.58,6.88-225.47,68.38-243.62,199.5-1.62,11.69-1.85,24.47,0,38.37-31.55,50.48-63.1,100.96-94.65,151.45-7.89,12.62-15.78,25.24-23.66,37.86-4.24,6.79-4.64,9.59-12.24,10.58-7.49.97-15.78-.03-23.34-.04-29.9-.05-59.81-.1-89.71-.15-16.9-.03-33.99-4.22-49.89-9.78-21.38-90.33-.58-153.72,9.59-180.32,56.66-148.22,214.46-188.12,230.19-191.83,43.79-14.27,94.55-27.94,151.54-38.37,53.2-9.73,102.25-14.87,145.79-17.26Z"/>
  <path class="cls-3" d="M378.34,334.34c-7.67,23.25-15.62,55.3-17.66,94-2.05,39,2.59,71.91,7.85,95.91-89.59,88.88-179.18,177.76-268.76,266.64-13.55-9.51-33.81-26.57-49.04-53.71-31.38-55.89-17.71-112.17-13.73-126.61,113.78-92.08,227.57-184.15,341.35-276.23Z"/>
  <path class="cls-4" d="M1061.25,13.99H344.77c-31.06,3.94-119.17,19.23-198.54,92.08-80.68,74.04-103.04,162.31-109.34,192.79-8.68,41.97-13.41,94.35-17.26,200.46-1.63,44.75-1.8,91.53,6.71,149.15,3.43,23.22,7.42,42.46,10.55,56.11,28.5-53.34,75.83-127.29,151.54-199.5,64.86-61.86,129.39-102.26,178.68-128.08,1.99-12.22,8.41-41.16,32.33-67.58,30.71-33.92,69.43-40.66,80.57-42.2h348.17c19.12-1.56,99.5-10.27,164.01-78.65,67.24-71.27,69.08-156.3,69.06-174.56Z"/>
  <path class="cls-5" d="M1061.25,414.91h-443.91c-37.63,0-75.02,5.62-110.95,16.82-68.19,21.25-160.02,60.55-250.82,134.73-117.52,96-177.52,204.83-205.25,264.72-38.25,68.98-39.71,144.98-1.92,193.74.54.7,1.11,1.42,1.72,2.16,19.83,24.4,49.96,38.12,81.41,38.12h235.3c-20.36-20.22-29.96-39.86-34.5-56.55-24.01-88.31,62.91-207.81,217.64-298.78,8.1-4.76,16.68-8.63,25.63-11.5,41.87-13.42,89.47-26.09,142.28-36,46.85-8.79,90.53-14.03,130.12-16.96,3.08-.23,6.09-.59,9.13-1.12,25.83-4.49,67.71-15.8,108.2-47.14,83.72-64.79,94.24-163.12,95.91-182.24Z"/>
  <path class="cls-2" d="M1061.25,790.89h-293.29c-24.56,0-48.91,4.63-71.69,13.82-62.36,25.16-174.39,84.57-204.75,197.19-4.82,17.87-8.09,38.97-7.67,63.3h339.53c27.08-2.99,86.94-13.52,141.95-59.47,94.68-79.07,96.01-197.05,95.91-214.85Z"/>
</svg>