<?xml version="1.0" encoding="UTF-8"?>
<svg id="Layer_1" data-name="Layer 1" xmlns="http://www.w3.org/2000/svg" viewBox="0 0 1080 1080">
  <defs>
    <style>
      .cls-1 {
        fill: #fff;
      }

      .cls-1, .cls-2 {
        stroke-width: 0px;
      }

      .cls-2 {
        fill: #c4c2c2;
      }
    </style>
  </defs>
  <path class="cls-2" d="M857.12,626.57c-23.24,6.78-222.22,67.4-240.11,196.63-1.59,11.52-1.82,24.12,0,37.81-31.1,49.76-62.19,99.51-93.29,149.27-7.77,12.44-15.55,24.87-23.32,37.32-4.18,6.69-4.57,9.45-12.06,10.42-7.38.96-15.55-.03-23-.04-29.47-.05-58.95-.1-88.42-.15-16.66-.03-33.5-4.16-49.17-9.64-21.07-89.03-.57-151.51,9.45-177.72,55.85-146.08,211.37-185.42,226.88-189.07,43.16-14.06,93.19-27.54,149.36-37.81,52.44-9.59,100.78-14.66,143.69-17.02Z"/>
  <path class="cls-2" d="M380.67,337.3c-7.56,22.92-15.4,54.51-17.4,92.64-2.02,38.44,2.55,70.88,7.73,94.53-88.3,87.6-176.6,175.2-264.9,262.8-13.36-9.37-33.32-26.18-48.34-52.94-30.92-55.09-17.46-110.55-13.53-124.78,112.15-90.75,224.29-181.5,336.44-272.26Z"/>
  <path class="cls-1" d="M1053.75,21.56H347.58c-30.61,3.89-117.45,18.96-195.68,90.75-79.52,72.98-101.56,159.97-107.77,190.01-8.55,41.36-13.21,92.99-17.02,197.57-1.6,44.1-1.77,90.21,6.62,147,3.38,22.89,7.32,41.85,10.4,55.3,28.09-52.57,74.74-125.46,149.36-196.63,63.93-60.97,127.53-100.79,176.11-126.24,1.96-12.04,8.29-40.57,31.86-66.61,30.27-33.44,68.43-40.08,79.41-41.59h343.16c18.84-1.53,98.07-10.12,161.65-77.52,66.27-70.24,68.09-154.05,68.06-172.05Z"/>
  <path class="cls-1" d="M1053.75,416.71h-437.52c-37.09,0-73.95,5.54-109.35,16.57-67.21,20.94-157.72,59.68-247.21,132.79-115.82,94.62-174.96,201.88-202.3,260.91-37.7,67.98-39.13,142.9-1.89,190.96.53.69,1.1,1.4,1.69,2.13,19.55,24.05,49.24,37.57,80.24,37.57h231.92c-20.06-19.93-29.53-39.29-34.01-55.74-23.66-87.04,62.01-204.82,214.51-294.48,7.98-4.69,16.44-8.51,25.26-11.34,41.27-13.23,88.19-25.72,140.23-35.48,46.18-8.66,89.23-13.83,128.25-16.72,3.03-.22,6-.58,9-1.1,25.45-4.42,66.74-15.58,106.64-46.46,82.51-63.86,92.89-160.78,94.53-179.61Z"/>
  <path class="cls-1" d="M1053.75,787.28h-289.07c-24.21,0-48.2,4.56-70.65,13.62-61.46,24.8-171.88,83.36-201.8,194.35-4.75,17.61-7.97,38.41-7.56,62.39h334.65c26.69-2.95,85.69-13.33,139.91-58.61,93.32-77.93,94.63-194.22,94.53-211.75Z"/>
</svg>